<svg width="243" height="147" viewBox="0 0 243 147" fill="none" xmlns="http://www.w3.org/2000/svg">
<path d="M212.439 117.775L203.075 123.331L194.619 128.341L179.069 126.68C182.26 125.439 185.368 124.017 188.396 122.419L178.181 121.784C177.69 122.147 177.172 122.501 176.653 122.848C175.44 123.654 174.154 124.424 172.812 125.142C173.041 124.761 173.336 124.236 173.741 123.681C174.145 123.124 174.643 122.357 175.211 121.595C178.031 117.795 182.694 112.676 188.136 111.348C189.355 111.04 190.592 110.943 191.844 111.058C202.39 112.079 212.141 117.603 212.439 117.775Z" fill="#93B83D"/>
<path d="M61.0695 114.507L49.7161 113.802C52.1096 115.429 54.5798 116.925 57.1312 118.292L41.4863 118.01L34.8648 112.879L25.1092 105.319L25.1388 105.321C30.7444 103.124 36.5458 101.783 42.5475 101.299C43.8093 101.213 45.0953 101.179 46.3837 101.217C53.4034 101.409 58.7184 108.668 61.5471 113.696C61.7161 113.992 61.876 114.286 62.0319 114.572C62.1469 114.78 62.255 114.988 62.3588 115.193L61.0695 114.507Z" fill="#93B83D"/>
<mask id="mask0_24_586" style="mask-type:luminance" maskUnits="userSpaceOnUse" x="28" y="1" width="171" height="135">
<path d="M35.7422 1.69287L198.282 11.7925L190.564 135.998L28.0245 125.898L35.7422 1.69287Z" fill="white"/>
</mask>
<g mask="url(#mask0_24_586)">
<path d="M188.128 111.348C185.482 115.467 182.168 118.946 178.182 121.784C177.691 122.147 177.173 122.501 176.653 122.848C175.441 123.654 174.155 124.424 172.812 125.142C166.268 128.663 158.243 131.077 148.93 131.83C122.696 133.953 87.345 127.901 62.3928 115.195L61.0694 114.507C59.5763 113.72 58.1236 112.908 56.7157 112.073C51.5352 109.083 46.8172 105.489 42.5572 101.288C37.5989 96.2672 34.131 90.6786 32.6709 84.582C26.9438 60.6456 44.0703 52.0464 53.7295 49.1353C53.499 48.5065 53.2873 47.8697 53.0965 47.2273C52.9035 46.5825 52.7336 45.9346 52.5801 45.2808C52.4288 44.6272 52.296 43.9701 52.1841 43.3075C52.0721 42.6472 51.9787 41.9812 51.9082 41.3143C51.8354 40.6473 51.7855 39.9794 51.7541 39.3081C51.725 38.6369 51.7141 37.9669 51.7238 37.2959C51.7335 36.6248 51.7637 35.9551 51.8167 35.2867C51.8675 34.6159 51.9386 33.9487 52.0301 33.2851C52.1218 32.6191 52.2336 31.959 52.3659 31.3001C52.4982 30.6413 52.6508 29.9883 52.8212 29.3409C52.9941 28.6915 53.1871 28.0478 53.3979 27.4121C53.6089 26.7741 53.84 26.1443 54.0888 25.5224C54.3377 24.8982 54.6066 24.2844 54.8933 23.6785C55.1823 23.0705 55.4866 22.4749 55.8111 21.8851C56.1355 21.2976 56.4752 20.7202 56.8348 20.1531C57.1945 19.5861 57.5693 19.0314 57.9618 18.4869C58.3543 17.9425 58.7641 17.4128 59.1894 16.8932C59.6146 16.3737 60.0549 15.8687 60.5127 15.3763C60.9682 14.8838 61.4388 14.4058 61.9245 13.9426C62.4102 13.4793 62.9085 13.0328 63.4198 12.5985C63.9332 12.1667 64.4595 11.7494 64.9961 11.3486C65.535 10.9481 66.0843 10.5641 66.6462 10.197C67.2082 9.82984 67.7805 9.47932 68.3631 9.14772C68.9457 8.81612 69.5387 8.50115 70.1396 8.20496C70.7427 7.91118 71.3516 7.63376 71.9708 7.37525C72.5901 7.11446 73.2171 6.877 73.8499 6.65589C74.4828 6.43478 75.1234 6.23471 75.7698 6.05328C76.4139 5.87171 77.0658 5.71118 77.7211 5.56914C78.3765 5.4271 79.0351 5.30583 79.6993 5.20546C80.3611 5.10495 81.0265 5.02292 81.6951 4.96167C82.3635 4.90268 83.0331 4.86205 83.7037 4.84204C84.3743 4.82202 85.0435 4.82477 85.7138 4.84586C87.4648 4.90211 89.2026 5.09691 90.9251 5.42782C93.1935 5.87032 95.3928 6.54382 97.5227 7.45061C99.6503 8.35725 101.66 9.47586 103.553 10.8043C105.447 12.135 107.18 13.6477 108.754 15.3446C110.328 17.0393 111.71 18.8796 112.895 20.8677L112.92 20.9012C113.374 21.6239 120.279 32.3286 131.687 24.4797C132.485 23.8714 133.311 23.3013 134.162 22.7694C135.013 22.2374 135.884 21.7456 136.781 21.2918C137.677 20.8403 138.591 20.4288 139.525 20.062C140.457 19.6927 141.405 19.3678 142.368 19.085C143.332 18.8044 144.306 18.5657 145.291 18.3733C146.274 18.1808 147.266 18.0323 148.266 17.9299C149.263 17.8297 150.263 17.773 151.266 17.7623C152.27 17.7515 153.271 17.7863 154.271 17.8667C155.271 17.9494 156.266 18.0752 157.254 18.2463C158.244 18.4197 159.222 18.6358 160.19 18.897C161.158 19.1582 162.113 19.4642 163.055 19.8129C163.995 20.1615 164.919 20.5547 165.824 20.9879C166.729 21.4211 167.611 21.8939 168.472 22.4089C169.334 22.9216 170.172 23.474 170.983 24.0658C171.794 24.6553 172.577 25.282 173.331 25.9456C174.085 26.607 174.807 27.303 175.497 28.0312C176.188 28.7594 176.844 29.5176 177.465 30.3054C178.085 31.0956 178.669 31.9109 179.216 32.7513C179.764 33.594 180.27 34.4593 180.738 35.3474C181.206 36.2354 181.632 37.1437 182.017 38.07C182.401 38.9962 182.744 39.9405 183.041 40.8978C183.34 41.8576 183.595 42.8284 183.806 43.8101C184.014 44.7917 184.179 45.7797 184.3 46.7764C184.418 47.7729 184.493 48.7736 184.52 49.7782C184.549 50.7806 184.532 51.7847 184.468 52.7859C184.405 53.7895 184.296 54.7855 184.14 55.7765C183.987 56.7699 183.787 57.7535 183.543 58.7275C183.298 59.6992 183.01 60.6613 182.679 61.6094C182.346 62.555 181.971 63.4866 181.555 64.3997C181.138 65.3127 180.68 66.2049 180.181 67.0762C179.683 67.9477 179.146 68.7939 178.57 69.617C177.993 70.4379 177.382 71.2337 176.733 71.9999L177.218 72.1008C193.731 82.2785 196.276 98.3846 188.128 111.348Z" fill="#9DCA3B"/>
</g>
<path d="M176.644 122.847C175.432 123.653 174.146 124.423 172.803 125.142C166.259 128.662 158.234 131.076 148.922 131.83C122.685 133.953 87.336 127.9 62.3816 115.194L61.0696 114.507C59.5765 113.72 58.1238 112.908 56.7158 112.073C56.8364 112.118 58.5508 112.727 61.5705 113.689C62.5652 114.004 63.7062 114.356 64.9704 114.745C84.6538 120.734 135.557 133.923 173.733 123.68C174.711 123.417 175.683 123.139 176.644 122.847Z" fill="#93B83D"/>
<path d="M111.963 50.3983C112.139 51.1929 112.275 51.994 112.373 52.802C112.469 53.6098 112.526 54.4198 112.542 55.234C112.56 56.0461 112.537 56.858 112.475 57.6697C112.413 58.4814 112.31 59.286 112.169 60.0882C112.026 60.888 111.846 61.681 111.626 62.4646C111.406 63.2483 111.151 64.0182 110.854 64.7766C110.561 65.535 110.229 66.2752 109.859 67.0015C109.492 67.7257 109.09 68.4317 108.652 69.1173C108.216 69.803 107.746 70.466 107.242 71.1063C106.741 71.7445 106.21 72.358 105.645 72.9466C105.083 73.5331 104.493 74.0927 103.876 74.6208C103.26 75.1492 102.617 75.6483 101.951 76.1141C101.285 76.5798 100.598 77.0123 99.8896 77.4115C99.1795 77.8106 98.4534 78.1721 97.7088 78.5005C96.9666 78.8268 96.2061 79.1176 95.4343 79.3689C94.6624 79.6225 93.8792 79.8366 93.0848 80.0111C92.2903 80.1879 91.4914 80.3233 90.6834 80.4216C89.8756 80.5176 89.0679 80.5748 88.2535 80.5927C87.4416 80.6085 86.6297 80.5855 85.8203 80.5237C85.0086 80.4619 84.2039 80.3593 83.404 80.2183C82.6018 80.077 81.8112 79.8954 81.0276 79.6754C80.2463 79.4555 79.4763 79.1998 78.718 78.9036C77.9619 78.6077 77.2195 78.276 76.4953 77.9088C75.7712 77.5395 75.0652 77.1369 74.3796 76.6991C73.6939 76.2636 73.0332 75.793 72.3929 75.2895C71.7547 74.7884 71.1413 74.2545 70.5549 73.6927C69.9685 73.1285 69.409 72.5386 68.8808 71.921C68.3526 71.3033 67.8556 70.6625 67.39 69.9939C66.9242 69.3276 66.4917 68.6405 66.0927 67.9303C65.6957 67.2226 65.3319 66.4964 65.006 65.7497C64.6776 65.0051 64.3888 64.247 64.1377 63.4729C63.8841 62.701 63.67 61.9178 63.4955 61.1234C63.3187 60.3288 63.1835 59.5277 63.0874 58.7199C62.9892 57.9119 62.9321 57.1019 62.9165 56.2877C62.8984 55.4756 62.9214 54.6637 62.9833 53.852C63.0474 53.0404 63.1477 52.2357 63.2912 51.4336C63.4323 50.6337 63.6118 49.8407 63.8318 49.0571C64.0518 48.2734 64.3075 47.5035 64.6037 46.7451C64.8998 45.9868 65.2313 45.2467 65.5986 44.5202C65.9657 43.796 66.3682 43.09 66.8061 42.4044C67.2439 41.7188 67.7123 41.0557 68.2158 40.4154C68.7169 39.7772 69.2508 39.1638 69.8128 38.5751C70.3747 37.9886 70.9646 37.429 71.5822 36.9009C72.1999 36.3727 72.8409 35.8734 73.5072 35.4076C74.1735 34.9419 74.8606 34.5094 75.5684 34.1102C76.2786 33.7111 77.0047 33.3496 77.7492 33.0212C78.4937 32.6951 79.2519 32.4041 80.0237 32.1528C80.7957 31.8992 81.5788 31.6851 82.3732 31.5106C83.1678 31.3338 83.9667 31.1984 84.7746 31.1001C85.5824 31.0041 86.3924 30.9471 87.2045 30.929C88.0165 30.9132 88.8283 30.9362 89.6401 30.9981C90.4495 31.0598 91.2541 31.1624 92.0563 31.3036C92.8563 31.4447 93.6469 31.6263 94.4305 31.8463C95.2118 32.0662 95.9818 32.3219 96.7401 32.6181C97.4984 32.9142 98.2386 33.2457 98.9628 33.6129C99.6891 33.9824 100.393 34.3848 101.078 34.8226C101.764 35.2581 102.425 35.7287 103.065 36.2322C103.703 36.7333 104.317 37.2672 104.903 37.829C105.492 38.3933 106.049 38.9831 106.577 39.6007C107.105 40.2184 107.603 40.8592 108.07 41.528C108.536 42.1943 108.966 42.8812 109.365 43.5914C109.765 44.2992 110.126 45.0253 110.452 45.772C110.781 46.5166 111.069 47.2747 111.323 48.0489C111.574 48.8207 111.788 49.6039 111.963 50.3983Z" fill="white"/>
<path d="M111.9 59.601C111.861 60.2245 111.791 60.8461 111.691 61.4658C111.593 62.0834 111.461 62.6943 111.302 63.299C111.141 63.9058 110.954 64.5018 110.734 65.0867C110.515 65.6739 110.269 66.248 109.995 66.8112C109.72 67.3744 109.418 67.9222 109.091 68.4547C108.76 68.987 108.406 69.5019 108.028 69.9992C107.65 70.4989 107.246 70.9763 106.82 71.4342C106.394 71.892 105.946 72.3303 105.477 72.7443C105.008 73.1584 104.52 73.5484 104.013 73.9144C103.506 74.2804 102.982 74.6225 102.442 74.9362C101.902 75.2521 101.345 75.5396 100.778 75.7991C100.209 76.0607 99.6278 76.2919 99.035 76.4949C98.4444 76.6981 97.8442 76.871 97.2344 77.0158C96.6268 77.1609 96.012 77.2757 95.3924 77.3583C94.7726 77.4431 94.1502 77.4958 93.5251 77.5187C92.9 77.5415 92.2747 77.5324 91.6511 77.4936C91.0253 77.4547 90.4036 77.3864 89.7861 77.2864C89.1687 77.1863 88.5576 77.057 87.9531 76.896C87.3484 76.7374 86.7526 76.5473 86.1677 76.3282C85.5805 76.109 85.0063 75.8631 84.4454 75.5884C83.8823 75.3135 83.3344 75.0122 82.8021 74.6821C82.2719 74.3545 81.7548 74.0003 81.2575 73.6198C80.7602 73.2417 80.2827 72.8374 79.8249 72.4114C79.367 71.9855 78.9311 71.538 78.517 71.0691C78.103 70.6002 77.7131 70.1099 77.3471 69.6029C76.9811 69.0958 76.639 68.572 76.3254 68.0293C76.0118 67.489 75.7241 66.9343 75.4625 66.3652C75.2032 65.7962 74.972 65.2153 74.7689 64.6224C74.5659 64.0295 74.393 63.4294 74.2482 62.8196C74.1032 62.212 73.9906 61.5974 73.9059 60.9753C73.8233 60.3556 73.7683 59.7331 73.7477 59.1082C73.725 58.4808 73.7319 57.8553 73.7707 57.2317C73.8096 56.6059 73.8802 55.9844 73.9802 55.3669C74.078 54.7493 74.2096 54.1384 74.3684 53.5315C74.5293 52.9269 74.7171 52.3309 74.9364 51.7437C75.1555 51.1588 75.4015 50.5824 75.6762 50.0215C75.9511 49.4583 76.2524 48.9105 76.5802 48.378C76.9102 47.8457 77.2643 47.3308 77.6426 46.8312C78.0208 46.3338 78.4251 45.8564 78.851 45.3985C79.2771 44.9384 79.7246 44.5024 80.1935 44.0884C80.6624 43.6743 81.1504 43.2843 81.6574 42.9183C82.1646 42.55 82.6883 42.2102 83.2288 41.8943C83.7692 41.5806 84.3262 41.2931 84.8929 41.0336C85.462 40.772 86.0429 40.5408 86.6358 40.3378C87.2264 40.1346 87.8266 39.9594 88.4363 39.8169C89.0439 39.6718 89.6587 39.557 90.2783 39.4744C90.8981 39.3896 91.5205 39.3369 92.1456 39.314C92.7707 39.2912 93.3961 39.3003 94.0219 39.3392C94.6454 39.378 95.2671 39.4463 95.8846 39.5463C96.502 39.6464 97.1131 39.7757 97.7176 39.9367C98.3223 40.0953 98.9181 40.2854 99.5031 40.5045C100.09 40.7215 100.664 40.9696 101.225 41.2443C101.788 41.5192 102.336 41.8205 102.869 42.1506C103.399 42.4782 103.916 42.8325 104.413 43.2106C104.911 43.591 105.388 43.9931 105.846 44.4213C106.304 44.8472 106.74 45.2947 107.154 45.7636C107.568 46.2325 107.958 46.7205 108.324 47.2298C108.69 47.7369 109.032 48.2607 109.345 48.8011C109.659 49.3437 109.947 49.8984 110.208 50.4675C110.468 51.0365 110.699 51.6174 110.902 52.2103C111.105 52.8009 111.278 53.4033 111.423 54.0109C111.568 54.6207 111.68 55.2353 111.765 55.8551C111.847 56.4771 111.902 57.0996 111.923 57.7245C111.946 58.3496 111.939 58.9751 111.9 59.601Z" fill="#232323"/>
<path d="M162.896 50.2416C163.434 50.8507 163.941 51.4853 164.416 52.1454C164.891 52.8054 165.336 53.4864 165.744 54.1903C166.153 54.8919 166.526 55.6141 166.864 56.3524C167.202 57.093 167.502 57.8473 167.765 58.6175C168.03 59.3856 168.256 60.1672 168.442 60.9578C168.63 61.7508 168.777 62.548 168.887 63.3544C168.995 64.1607 169.065 64.9715 169.095 65.7843C169.124 66.5972 169.113 67.4097 169.062 68.2199C169.012 69.0323 168.923 69.84 168.793 70.643C168.663 71.4459 168.493 72.2417 168.286 73.0262C168.077 73.8128 167.833 74.588 167.548 75.3493C167.265 76.113 166.945 76.8584 166.586 77.59C166.23 78.3195 165.839 79.0331 165.412 79.7239C164.985 80.417 164.525 81.0852 164.033 81.7331C163.54 82.381 163.015 83.0017 162.462 83.5978C161.908 84.194 161.327 84.7609 160.718 85.2988C160.109 85.8366 159.474 86.3432 158.814 86.8208C158.156 87.2962 157.476 87.7382 156.772 88.1468C156.07 88.5578 155.35 88.9311 154.609 89.2689C153.871 89.6068 153.117 89.9095 152.346 90.1723C151.578 90.4375 150.799 90.6633 150.008 90.8494C149.218 91.0379 148.418 91.1847 147.614 91.2946C146.808 91.4044 145.999 91.473 145.186 91.5024C144.374 91.5319 143.561 91.5202 142.751 91.4699C141.939 91.4194 141.133 91.3305 140.33 91.2007C139.527 91.0708 138.734 90.9027 137.947 90.6939C137.163 90.4853 136.387 90.2407 135.626 89.9558C134.865 89.6731 134.119 89.3527 133.388 88.9943C132.658 88.6382 131.947 88.2445 131.256 87.8178C130.563 87.3909 129.895 86.9314 129.249 86.4366C128.602 85.9441 127.981 85.4212 127.387 84.868C126.791 84.3124 126.224 83.7311 125.686 83.122C125.148 82.5129 124.642 81.8783 124.166 81.2183C123.689 80.5581 123.247 79.8773 122.838 79.1734C122.43 78.4695 122.056 77.7495 121.718 77.0089C121.38 76.2706 121.08 75.5141 120.815 74.746C120.552 73.9758 120.326 73.1964 120.14 72.4036C119.952 71.6129 119.805 70.8133 119.695 70.0069C119.585 69.2028 119.517 68.3921 119.488 67.5793C119.458 66.7665 119.47 65.9539 119.52 65.1415C119.571 64.3314 119.66 63.5236 119.789 62.7207C119.919 61.9178 120.088 61.1218 120.296 60.3352C120.505 59.5486 120.75 58.7756 121.035 58.0121C121.317 57.2506 121.638 56.5029 121.994 55.7735C122.352 55.0419 122.744 54.3306 123.171 53.6375C123.597 52.9467 124.057 52.2762 124.55 51.6306C125.042 50.9827 125.565 50.3618 126.121 49.7658C126.674 49.1697 127.255 48.6027 127.864 48.0649C128.473 47.527 129.108 47.0182 129.768 46.5429C130.426 46.0675 131.107 45.6232 131.811 45.2146C132.512 44.8059 133.232 44.4325 133.973 44.0948C134.711 43.7568 135.466 43.4542 136.234 43.1912C137.004 42.9261 137.783 42.7004 138.574 42.5142C139.365 42.3258 140.164 42.1767 140.968 42.069C141.775 41.9592 142.583 41.8907 143.396 41.8612C144.209 41.8318 145.019 41.841 145.832 41.8915C146.642 41.9418 147.449 42.0331 148.252 42.163C149.055 42.2928 149.849 42.4609 150.635 42.6697C151.42 42.8761 152.195 43.123 152.956 43.4079C153.718 43.6905 154.463 44.011 155.192 44.3692C155.924 44.7254 156.635 45.1191 157.326 45.5458C158.019 45.9727 158.687 46.4323 159.333 46.9247C159.981 47.4173 160.602 47.9425 161.196 48.4957C161.792 49.049 162.359 49.6325 162.896 50.2416Z" fill="white"/>
<path d="M142.087 48.4574C142.699 48.58 143.306 48.7342 143.905 48.9176C144.501 49.1009 145.091 49.3134 145.668 49.5526C146.244 49.794 146.808 50.0621 147.361 50.3591C147.911 50.656 148.446 50.9794 148.966 51.327C149.485 51.6768 149.985 52.0505 150.468 52.4483C150.95 52.8461 151.413 53.2678 151.854 53.7109C152.295 54.1541 152.713 54.6188 153.11 55.1049C153.505 55.5886 153.876 56.0914 154.223 56.6132C154.57 57.1351 154.888 57.6712 155.183 58.2241C155.475 58.7768 155.741 59.3439 155.98 59.923C156.218 60.502 156.426 61.0906 156.608 61.6891C156.787 62.2896 156.937 62.8952 157.059 63.5104C157.178 64.1255 157.268 64.7433 157.33 65.3663C157.389 65.9891 157.417 66.6144 157.416 67.2404C157.414 67.8662 157.382 68.4901 157.318 69.1144C157.257 69.7365 157.164 70.3544 157.041 70.9682C156.916 71.5818 156.764 72.1891 156.581 72.7877C156.397 73.3863 156.185 73.9739 155.943 74.5506C155.704 75.1297 155.436 75.6933 155.139 76.2459C154.842 76.7963 154.521 77.3315 154.171 77.8512C153.824 78.371 153.45 78.8732 153.052 79.3557C152.654 79.8404 152.232 80.3008 151.789 80.7438C151.346 81.1846 150.881 81.6035 150.397 82.0006C149.911 82.3954 149.409 82.7662 148.889 83.1131C148.367 83.4599 147.831 83.7807 147.278 84.073C146.725 84.3677 146.161 84.6341 145.582 84.8723C145.002 85.1104 144.414 85.3206 143.815 85.5004C143.217 85.6803 142.609 85.8298 141.996 85.9517C141.383 86.0735 140.763 86.1629 140.141 86.2224C139.518 86.282 138.894 86.3118 138.269 86.3094C137.643 86.3094 137.019 86.2775 136.397 86.2137C135.775 86.1522 135.157 86.059 134.543 85.934C133.929 85.8114 133.324 85.6573 132.726 85.4739C132.127 85.2905 131.54 85.078 130.963 84.8389C130.386 84.5974 129.82 84.3293 129.27 84.0323C128.72 83.7354 128.184 83.4143 127.665 83.0645C127.145 82.7147 126.645 82.3409 126.163 81.9431C125.68 81.5454 125.218 81.1237 124.777 80.6805C124.334 80.2372 123.917 79.7727 123.52 79.2866C123.125 78.8029 122.754 78.3001 122.408 77.7782C122.061 77.2564 121.742 76.7203 121.448 76.1674C121.155 75.6147 120.889 75.0476 120.651 74.4685C120.413 73.8917 120.203 73.3007 120.023 72.7024C119.843 72.1018 119.693 71.4963 119.572 70.881C119.452 70.2682 119.36 69.648 119.301 69.0252C119.241 68.4024 119.212 67.7769 119.214 67.1511C119.216 66.5253 119.248 65.9013 119.31 65.2769C119.374 64.6549 119.467 64.0371 119.59 63.4233C119.714 62.8097 119.866 62.2023 120.05 61.6038C120.233 61.0052 120.446 60.4176 120.685 59.8408C120.926 59.2618 121.194 58.6982 121.491 58.1455C121.788 57.5951 122.11 57.06 122.459 56.5403C122.807 56.0204 123.181 55.5182 123.579 55.0358C123.976 54.5534 124.398 54.0907 124.841 53.6476C125.284 53.2068 125.749 52.788 126.233 52.3931C126.717 51.996 127.219 51.6251 127.741 51.2783C128.263 50.9315 128.799 50.6108 129.352 50.3184C129.905 50.0238 130.47 49.7574 131.049 49.5192C131.626 49.2809 132.214 49.0708 132.815 48.891C133.413 48.7112 134.019 48.5615 134.634 48.4398C135.247 48.3203 135.865 48.2284 136.488 48.1689C137.11 48.1094 137.736 48.0797 138.362 48.082C138.988 48.0821 139.612 48.114 140.234 48.1778C140.856 48.2416 141.474 48.3348 142.087 48.4574Z" fill="#232323"/>
<path d="M92.6355 19.1428L81.2431 19.6891C81.0026 19.6993 80.7635 19.6867 80.5281 19.6515C80.2905 19.6162 80.0587 19.5584 79.8331 19.4758C79.6074 19.3955 79.3922 19.2931 79.1875 19.1684C78.9826 19.046 78.7904 18.9039 78.6131 18.7421C78.4358 18.5803 78.2755 18.4035 78.1343 18.212C77.991 18.0181 77.8689 17.814 77.7659 17.5974C77.6652 17.3787 77.5832 17.1543 77.5268 16.9224C77.4682 16.6903 77.4327 16.4528 77.4223 16.2145C77.4099 15.9739 77.4223 15.7371 77.4576 15.4994C77.493 15.2617 77.553 15.0302 77.6333 14.8044C77.7136 14.5787 77.8161 14.3634 77.9407 14.1587C78.0632 13.9516 78.2053 13.7617 78.367 13.5844C78.529 13.4049 78.7056 13.2468 78.8972 13.1033C79.0912 12.96 79.2952 12.8379 79.5118 12.7349C79.7283 12.6341 79.9527 12.5521 80.1869 12.4958C80.419 12.4372 80.6542 12.4015 80.8949 12.3891L85.9058 12.1521L92.2871 11.845C92.5276 11.8348 92.7645 11.8473 93.0021 11.8826C93.2398 11.9179 93.4692 11.9756 93.6948 12.0581C93.9206 12.1384 94.1358 12.2409 94.3428 12.3657C94.5477 12.4881 94.7376 12.6301 94.9149 12.7919C95.0944 12.9538 95.2525 13.1304 95.3959 13.3221C95.5392 13.516 95.6613 13.7201 95.7621 13.9365C95.865 14.1554 95.9447 14.3796 96.0034 14.6117C96.0621 14.8438 96.0976 15.0813 96.1079 15.3196C96.1204 15.5602 96.108 15.797 96.0726 16.0347C96.0373 16.2724 95.9795 16.5041 95.897 16.7297C95.8167 16.9554 95.7142 17.1707 95.5917 17.3778C95.467 17.5825 95.3249 17.7747 95.1631 17.952C95.0013 18.1292 94.8246 18.2896 94.6329 18.433C94.4391 18.5741 94.235 18.6962 94.0184 18.7992C93.8019 18.9023 93.5753 18.9819 93.3432 19.0405C93.1113 19.0969 92.876 19.1326 92.6355 19.1428Z" fill="#232323"/>
<path d="M153.412 30.8785L163.813 35.6231C164.029 35.721 164.255 35.7945 164.485 35.8476C164.717 35.9008 164.952 35.9315 165.19 35.9371C165.427 35.945 165.663 35.9277 165.898 35.8897C166.132 35.8494 166.359 35.7882 166.584 35.7039C166.806 35.6217 167.018 35.5161 167.22 35.3916C167.422 35.2648 167.609 35.1211 167.784 34.9606C167.958 34.7978 168.116 34.6203 168.253 34.4278C168.393 34.2354 168.513 34.0327 168.613 33.8151C168.714 33.5974 168.789 33.3714 168.845 33.1395C168.901 32.9054 168.933 32.6699 168.942 32.4282C168.95 32.1889 168.935 31.9503 168.897 31.715C168.859 31.4773 168.798 31.2474 168.716 31.023C168.632 30.7984 168.526 30.584 168.402 30.3798C168.275 30.1754 168.132 29.986 167.967 29.809C167.804 29.6344 167.627 29.4749 167.432 29.3349C167.237 29.1949 167.032 29.0748 166.812 28.9743L162.254 26.8909L156.451 24.2549C156.233 24.1546 156.007 24.0766 155.773 24.0232C155.539 23.9675 155.303 23.9346 155.064 23.9266C154.825 23.9186 154.586 23.9335 154.351 23.9714C154.113 24.0114 153.883 24.0725 153.659 24.1545C153.434 24.2388 153.22 24.3443 153.015 24.4709C152.811 24.5953 152.621 24.7412 152.447 24.9039C152.27 25.0666 152.113 25.2464 151.973 25.441C151.833 25.6356 151.712 25.8429 151.612 26.0606C151.514 26.2783 151.438 26.5021 151.385 26.7341C151.33 26.9659 151.299 27.2016 151.291 27.441C151.285 27.6782 151.3 27.9168 151.338 28.1521C151.376 28.3875 151.437 28.6175 151.522 28.8397C151.606 29.0643 151.709 29.2763 151.834 29.4782C151.96 29.6826 152.104 29.872 152.267 30.0466C152.427 30.221 152.605 30.3782 152.799 30.5183C152.992 30.6582 153.197 30.7783 153.412 30.8785Z" fill="#232323"/>
<path d="M62.4206 72.1822C62.9082 72.2764 63.3923 72.3888 63.8711 72.5145C64.3498 72.6424 64.8229 72.7861 65.2883 72.9429C65.7536 73.102 66.211 73.2767 66.6584 73.4667C67.1059 73.6544 67.541 73.8596 67.9684 74.0758C68.3935 74.2941 68.8063 74.5253 69.2046 74.7694C69.603 75.0135 69.9892 75.2682 70.3564 75.5355C70.7257 75.8051 71.0785 76.0829 71.4146 76.3734C71.7485 76.6614 72.0658 76.9598 72.3641 77.2685C72.6625 77.5772 72.9422 77.8915 73.2008 78.216C73.4595 78.5382 73.6971 78.8682 73.9114 79.2059C74.1282 79.5415 74.324 79.8826 74.4945 80.2268C74.6672 80.5733 74.8169 80.9207 74.9412 81.2734C75.0679 81.624 75.1693 81.9775 75.2478 82.3319C75.3264 82.684 75.382 83.0393 75.4128 83.3907C75.4433 83.7444 75.4488 84.0966 75.4318 84.4451C75.4147 84.7935 75.3727 85.1382 75.3057 85.4812C75.2411 85.8222 75.1518 86.157 75.0375 86.488C74.9256 86.8192 74.789 87.1419 74.6277 87.4586C74.4687 87.7754 74.2873 88.084 74.0815 88.3819C73.8778 88.6822 73.6519 88.972 73.4038 89.2513C73.1557 89.5305 72.8878 89.7972 72.5999 90.0557C72.3121 90.312 72.0069 90.5557 71.6795 90.7867C71.3545 91.0178 71.0119 91.2363 70.652 91.4401C70.2898 91.6438 69.9147 91.8352 69.5224 92.0096C69.1323 92.1841 68.7272 92.344 68.3071 92.4869C67.8892 92.63 67.4586 92.7586 67.0153 92.8704C66.5743 92.9824 66.1231 93.0754 65.6613 93.1541C65.1995 93.2328 64.732 93.2928 64.2542 93.3362C63.7786 93.3798 63.2971 93.407 62.8123 93.4157C62.3274 93.4244 61.8367 93.4168 61.3472 93.3909C60.8553 93.3649 60.3646 93.3207 59.8726 93.2605C59.3805 93.2025 58.8897 93.124 58.4021 93.0297C57.9145 92.9355 57.4301 92.8254 56.9515 92.6974C56.4727 92.5717 55.9996 92.4281 55.5343 92.269C55.069 92.1099 54.6116 91.9352 54.1641 91.7475C53.7167 91.5575 53.2793 91.3544 52.8542 91.1361C52.429 90.9201 52.0162 90.6888 51.6178 90.4448C51.2172 90.2006 50.8334 89.9437 50.464 89.6763C50.0968 89.409 49.7441 89.129 49.4079 88.8408C49.0718 88.5504 48.7568 88.2521 48.4583 87.9457C48.16 87.637 47.8804 87.3204 47.6217 86.9982C47.3631 86.6737 47.1255 86.3437 46.9088 86.0081C46.692 85.6725 46.4985 85.3315 46.3281 84.9851C46.1553 84.6409 46.0057 84.2912 45.8813 83.9408C45.7547 83.5879 45.6532 83.2367 45.5724 82.8821C45.4939 82.5277 45.4404 82.1749 45.4099 81.8212C45.3793 81.4675 45.3714 81.1174 45.3909 80.7668C45.4079 80.4184 45.4499 80.0737 45.5145 79.7328C45.5814 79.392 45.6709 79.0549 45.7851 78.7239C45.8969 78.395 46.0336 78.07 46.1926 77.7532C46.3538 77.4388 46.5352 77.1302 46.7389 76.8299C46.9447 76.532 47.1706 76.2422 47.4187 75.9629C47.6645 75.6835 47.9325 75.4146 48.2203 75.1583C48.5104 74.9022 48.8158 74.6562 49.1431 74.4252C49.4681 74.1941 49.8107 73.9755 50.1706 73.7717C50.5305 73.5679 50.9078 73.3789 51.2978 73.2044C51.6903 73.0278 52.0953 72.8702 52.5156 72.7249C52.9334 72.5819 53.364 72.4533 53.8049 72.3436C54.2481 72.2318 54.6995 72.1365 55.1613 72.0578C55.623 71.9814 56.0906 71.9191 56.5662 71.8755C57.0418 71.832 57.5231 71.807 58.0102 71.7985C58.4952 71.7875 58.9835 71.7973 59.4753 71.8233C59.9671 71.8493 60.458 71.8912 60.95 71.9514C61.442 72.0117 61.933 72.0879 62.4206 72.1822Z" fill="#93B83D"/>
<path d="M160.884 91.1849C161.372 91.2792 161.856 91.3893 162.335 91.5172C162.814 91.6429 163.287 91.7865 163.752 91.9457C164.217 92.1048 164.675 92.2794 165.122 92.4672C165.57 92.6571 166.007 92.8602 166.432 93.0785C166.857 93.2946 167.27 93.5258 167.669 93.7699C168.069 94.0141 168.453 94.271 168.822 94.5384C169.192 94.8058 169.542 95.0834 169.878 95.3738C170.215 95.6643 170.532 95.9627 170.83 96.2691C171.129 96.5778 171.406 96.8943 171.665 97.2165C171.923 97.5409 172.161 97.871 172.378 98.2066C172.594 98.5421 172.788 98.8831 172.961 99.2297C173.131 99.5738 173.281 99.9235 173.407 100.274C173.532 100.627 173.635 100.978 173.714 101.333C173.792 101.687 173.846 102.04 173.876 102.393C173.907 102.747 173.915 103.097 173.896 103.446C173.878 103.796 173.836 104.141 173.772 104.482C173.705 104.823 173.615 105.16 173.504 105.491C173.389 105.82 173.253 106.145 173.094 106.462C172.933 106.776 172.751 107.084 172.547 107.385C172.342 107.683 172.116 107.972 171.868 108.252C171.622 108.531 171.354 108.8 171.066 109.056C170.778 109.313 170.471 109.556 170.146 109.79C169.818 110.021 169.476 110.239 169.116 110.443C168.756 110.647 168.379 110.836 167.989 111.01C167.596 111.185 167.191 111.344 166.773 111.49C166.353 111.633 165.922 111.761 165.481 111.871C165.038 111.983 164.587 112.078 164.125 112.155C163.663 112.233 163.196 112.293 162.72 112.339C162.245 112.383 161.763 112.408 161.276 112.416C160.791 112.427 160.303 112.417 159.811 112.391C159.319 112.365 158.828 112.323 158.336 112.263C157.844 112.203 157.353 112.127 156.866 112.032C156.378 111.938 155.896 111.826 155.415 111.7C154.937 111.572 154.466 111.429 153.998 111.269C153.533 111.113 153.078 110.938 152.628 110.748C152.18 110.56 151.745 110.355 151.318 110.139C150.893 109.921 150.48 109.689 150.082 109.445C149.683 109.201 149.299 108.947 148.93 108.679C148.561 108.41 148.208 108.132 147.872 107.841C147.538 107.553 147.221 107.255 146.922 106.946C146.624 106.638 146.344 106.323 146.086 105.999C145.827 105.676 145.589 105.346 145.375 105.009C145.158 104.673 144.965 104.332 144.792 103.988C144.619 103.641 144.472 103.294 144.345 102.941C144.218 102.591 144.117 102.237 144.039 101.883C143.96 101.531 143.904 101.175 143.874 100.822C143.843 100.47 143.837 100.118 143.855 99.7696C143.872 99.4211 143.914 99.0765 143.981 98.7334C144.045 98.3925 144.135 98.0576 144.249 97.7266C144.361 97.3955 144.497 97.0727 144.659 96.7561C144.818 96.4393 144.999 96.1307 145.205 95.8328C145.409 95.5325 145.634 95.2427 145.883 94.9634C146.131 94.6841 146.399 94.4175 146.686 94.159C146.974 93.9027 147.282 93.6591 147.607 93.428C147.932 93.1969 148.274 92.9783 148.637 92.7747C148.997 92.5686 149.372 92.3794 149.764 92.205C150.154 92.0305 150.559 91.8707 150.979 91.7277C151.397 91.5823 151.828 91.456 152.271 91.3442C152.712 91.2323 153.166 91.1394 153.625 91.0606C154.087 90.9819 154.557 90.922 155.032 90.8784C155.508 90.8349 155.989 90.8077 156.474 90.799C156.961 90.7904 157.45 90.7979 157.939 90.8237C158.431 90.8497 158.924 90.8918 159.416 90.9521C159.908 91.0123 160.397 91.0907 160.884 91.1849Z" fill="#93B83D"/>
<path d="M119.532 105.256C119.065 105.227 118.644 105.2 118.203 105.173C107.403 104.42 97.0077 101.964 87.0135 97.8025C70.5106 90.8511 62.2239 81.7831 61.9003 81.402C61.804 81.2612 61.7358 81.1085 61.6935 80.9437C61.6535 80.779 61.6433 80.6116 61.663 80.4415C61.6826 80.2736 61.7313 80.1145 61.8094 79.9617C61.8895 79.8113 61.9914 79.6783 62.1173 79.565C62.2432 79.4495 62.3857 79.3624 62.5427 79.2991C62.7019 79.2381 62.8661 79.2049 63.0354 79.2017C63.2068 79.201 63.3719 79.2272 63.5305 79.2851C63.6914 79.343 63.8369 79.4275 63.965 79.5359C64.0485 79.6256 72.2542 88.5995 88.2338 95.2968C102.992 101.466 127.568 106.909 160.961 97.8237C161.129 97.7999 161.298 97.8081 161.462 97.8457C161.629 97.8835 161.783 97.9479 161.925 98.0435C162.068 98.1369 162.189 98.2541 162.287 98.3905C162.388 98.5292 162.459 98.6798 162.504 98.8448C162.548 99.0098 162.563 99.1752 162.548 99.3456C162.533 99.516 162.486 99.6775 162.413 99.8306C162.337 99.9835 162.239 100.119 162.116 100.235C161.992 100.353 161.851 100.445 161.694 100.51C147.077 104.491 132.899 106.086 119.532 105.256Z" fill="#232323"/>
<path d="M162.603 103.738C162.419 103.726 162.241 103.679 162.075 103.597C161.907 103.516 161.763 103.404 161.639 103.266C161.515 103.126 161.424 102.968 161.364 102.793C161.302 102.615 161.279 102.435 161.291 102.249C161.494 98.9764 159.087 96.6565 159.061 96.6343C158.952 96.5019 158.872 96.3553 158.818 96.1943C158.762 96.0332 158.738 95.8672 158.744 95.6963C158.75 95.5253 158.788 95.3609 158.852 95.205C158.919 95.047 159.01 94.9064 159.128 94.7812C159.245 94.6583 159.379 94.5592 159.532 94.4842C159.685 94.4092 159.848 94.3645 160.018 94.3476C160.188 94.3331 160.354 94.3479 160.518 94.3924C160.684 94.437 160.835 94.5103 160.973 94.6103C161.109 94.7352 164.354 97.8405 164.069 102.426C164.055 102.61 164.01 102.783 163.929 102.95C163.851 103.114 163.741 103.258 163.603 103.382C163.468 103.503 163.311 103.597 163.138 103.659C162.965 103.719 162.788 103.747 162.603 103.738Z" fill="#232323"/>
<path d="M60.3271 83.9977C60.2087 83.9903 60.0914 83.9671 59.9796 83.9281C59.805 83.8693 59.6484 83.7796 59.5097 83.6591C59.3687 83.5384 59.2587 83.3967 59.1753 83.2316C59.0919 83.0665 59.0432 82.8945 59.0272 82.7107C59.0136 82.5248 59.0339 82.3456 59.0904 82.1709C60.5286 77.8124 64.6967 76.1387 64.8701 76.0695C65.0349 76.0272 65.2023 76.0171 65.3724 76.0368C65.5425 76.0565 65.7017 76.1052 65.8545 76.1832C66.005 76.2611 66.138 76.3631 66.2535 76.489C66.3668 76.6149 66.4562 76.7575 66.5194 76.9167C66.5803 77.0759 66.6135 77.2401 66.6166 77.4117C66.6175 77.5808 66.5912 77.7459 66.5333 77.9068C66.4753 78.0677 66.3909 78.2132 66.28 78.3434C66.1691 78.4736 66.0391 78.5797 65.8901 78.6618C65.8176 78.6893 62.7475 79.972 61.7365 83.0435C61.6863 83.1889 61.6163 83.3239 61.5241 83.4461C61.4297 83.5682 61.3204 83.6733 61.1917 83.759C61.0653 83.8448 60.9267 83.907 60.7802 83.9482C60.6314 83.9892 60.4795 84.0072 60.3271 83.9977Z" fill="#232323"/>
<path d="M57.4305 130.321C48.6568 127.473 37.4305 115.382 37.0846 115.03C37.385 115.489 49.5308 134.143 37.4402 133.241C24.2559 132.257 28.4266 113.445 28.4266 113.445C28.4266 113.445 8.9064 129.243 2.10444 121.686C-1.0708 118.153 3.67385 114.407 9.85525 111.325C15.2989 108.609 21.8551 106.407 25.1093 105.323L25.1389 105.325C26.0951 105.01 26.7645 104.789 27.0248 104.682C32.5548 102.451 36.7302 104.005 40.428 104.863C41.0339 105.002 41.5817 105.266 42.0693 105.655C42.5568 106.044 42.9339 106.52 43.2052 107.081C44.252 109.279 45.774 111.071 47.776 112.457C48.3826 112.878 49.0445 113.328 49.7417 113.799C52.1331 115.426 54.6055 116.922 57.1546 118.289C59.2608 119.357 61.1692 120.152 62.4823 120.233C67.3916 120.529 66.3269 133.215 57.4305 130.321Z" fill="#9DCA3B"/>
<path d="M233.243 136.863C225.544 143.522 208.145 125.423 208.145 125.423C208.145 125.423 209.953 144.611 196.751 143.951C184.639 143.354 199.003 126.343 199.356 125.924C198.965 126.256 186.334 136.843 177.275 138.585C168.071 140.357 168.602 127.645 173.52 127.951C174.831 128.032 176.828 127.503 179.05 126.675C182.248 125.434 185.363 124.017 188.398 122.419L189.076 122.061C191.232 120.932 192.964 119.34 194.277 117.29C194.613 116.767 195.049 116.342 195.578 116.016C196.108 115.691 196.684 115.496 197.303 115.431C201.078 115.038 205.407 114.011 210.615 116.894C210.864 117.035 211.526 117.339 212.436 117.779C216.899 119.852 221.233 122.163 225.437 124.721C231.866 128.755 237.117 133.515 233.243 136.863Z" fill="#9DCA3B"/>
</svg>
