<svg width="628" height="928" viewBox="0 0 628 928" fill="none" xmlns="http://www.w3.org/2000/svg">
<path d="M10.0458 885.424C10.0143 886.511 9.99851 887.613 9.76225 888.684C9.52598 889.756 9.1322 890.827 8.64391 891.835C6.20247 897.206 1.77637 901.774 0.421767 907.633C-0.649317 912.059 0.406016 916.296 2.61119 919.037C4.81636 921.778 8.25013 923.117 12.0619 922.124C18.3152 920.502 23.0563 914.816 29.0417 912.689C33.1528 911.193 38.8548 912.721 41.6742 915.761C42.131 916.281 42.5563 916.832 43.1391 917.21C43.9109 917.698 44.856 917.777 45.7696 917.651C48.6993 917.304 51.3612 915.084 52.2906 912.248C53.2199 909.429 52.3221 906.042 50.1484 904.136C49.8019 903.837 49.4081 903.554 48.9671 903.412C48.2583 903.207 47.4864 903.317 46.7934 903.522C45.2183 904.026 43.6274 904.877 42.131 905.696C40.5244 906.578 38.8233 907.019 37.1064 907.476C36.4606 907.633 35.799 907.775 35.1532 907.869C33.7829 908.027 32.3968 907.885 31.1367 907.428C31.0107 907.381 30.8689 907.302 30.7429 907.208C30.3964 906.909 30.4279 906.326 30.5539 905.838C30.9791 904.373 32.2078 903.349 33.2316 902.341C37.2009 898.403 42.0838 895.647 47.1714 894.434C48.9671 894.024 50.2114 894.481 51.7865 895.284C54.3855 896.607 58.0713 897.978 60.5757 895.505C61.3003 894.812 61.7256 893.851 61.9618 892.874C62.7966 889.236 61.442 884.117 57.268 883.628C54.732 883.345 53.0781 885.345 51.314 886.952C49.1718 888.889 46.3681 889.819 43.6746 890.527C41.2962 891.126 38.7288 891.835 36.3661 892.78C33.9876 893.741 31.4989 895.584 29.026 896.088C28.3172 896.229 27.5611 896.025 27.2934 895.363C27.1201 894.906 27.2461 894.323 27.4351 893.804L27.7502 893.063C29.0418 889.992 31.0422 887.298 33.2158 884.857C33.9876 883.975 34.7594 883.109 35.6573 882.431C36.5708 881.738 37.5789 881.203 38.6185 880.966C38.9965 880.888 39.3588 880.84 39.7211 880.825C41.0599 880.762 42.4145 881.014 43.7849 880.683C45.2498 880.336 46.7776 879.454 47.8172 878.289C50.1326 875.721 50.0066 871.736 47.7542 869.547C47.4707 869.263 47.1399 869.058 46.8249 868.838C46.3996 868.586 45.9271 868.381 45.4388 868.208C43.9739 867.72 42.3043 867.751 40.7607 868.35C39.2013 868.964 37.7994 870.224 37.0434 871.831C33.3103 879.47 26.8838 886.306 19.7958 890.779C19.2917 891.11 18.6774 891.457 18.0946 891.409C17.3386 891.362 17.1023 890.669 17.0236 889.897C16.9133 888.7 16.866 887.519 16.9763 886.306C17.1023 885.062 17.4646 883.849 17.8426 882.636C18.2207 881.407 18.7247 880.226 19.339 879.092C19.528 878.745 19.7013 878.43 19.969 878.147C20.1423 877.926 20.3628 877.769 20.5676 877.611C21.7332 876.682 22.9145 875.831 23.6863 874.461C24.5999 872.776 24.5526 870.728 23.7651 869.232C22.9618 867.767 21.4969 866.869 19.8745 866.601C18.2679 866.349 16.488 866.68 14.8184 867.326C13.1645 867.987 11.4791 868.932 10.2348 870.429C8.97468 871.925 8.12412 873.973 8.36039 875.737C8.43914 876.273 8.59666 876.761 8.80142 877.233C8.97468 877.564 9.17945 877.895 9.41572 878.163C9.52598 878.336 9.69924 878.446 9.778 878.635C9.90401 878.824 9.90401 879.029 9.91976 879.281C9.95126 879.817 9.96701 880.352 9.99851 880.872C10.0458 881.927 10.0458 882.998 10.0458 884.038C10.0615 884.51 10.0615 884.967 10.0458 885.424Z" fill="#DBE061" fill-opacity="0.2"/>
<mask id="mask0_24_494" style="mask-type:luminance" maskUnits="userSpaceOnUse" x="80" y="868" width="57" height="60">
<path d="M80.1074 868.035H136.56V927.984H80.1074V868.035Z" fill="white"/>
</mask>
<g mask="url(#mask0_24_494)">
<path d="M120.746 916.612C119.88 916.612 119.045 916.627 118.258 916.816C117.454 917.005 116.761 917.352 116.115 917.777C112.666 919.935 110.839 923.81 107.043 925.495C101.325 928.079 92.5674 924.881 90.8347 918.092C89.4014 912.501 92.3311 907.334 92.3468 901.711C92.3468 897.836 89.6061 892.717 86.0936 890.528C85.5108 890.165 84.8808 889.85 84.3925 889.378C83.7624 888.748 83.4632 887.834 83.3371 886.952C82.9434 884.085 84.5972 881.156 87.1647 879.864C89.7636 878.635 93.0714 879.187 95.2136 881.156C95.5601 881.471 95.8751 881.833 96.0799 882.243C96.3792 882.904 96.4107 883.629 96.3162 884.322C96.0956 885.865 95.6074 887.425 95.1978 888.89C94.7253 890.48 94.6623 892.087 94.7095 893.741C94.7253 894.371 94.7568 894.97 94.8513 895.584C95.0561 896.844 95.5443 898.104 96.2847 899.175C96.3792 899.285 96.4579 899.427 96.5997 899.522C96.9462 899.805 97.4502 899.726 97.844 899.569C99.0096 899.049 99.5767 897.836 100.207 896.844C102.711 892.969 104.208 888.417 104.68 883.676C104.838 881.991 104.255 880.778 103.325 879.313C101.813 876.84 100.128 873.264 102.396 870.854C103.042 870.177 103.956 869.752 104.885 869.563C108.382 868.822 113.217 870.524 113.832 874.556C114.225 876.997 112.414 878.336 111.107 879.959C109.516 881.88 108.933 884.463 108.728 886.984C108.492 889.173 108.303 891.504 107.941 893.694C107.547 895.867 106.491 898.151 106.649 900.356C106.696 900.986 107.074 901.664 107.704 901.869C108.145 902.01 108.618 901.9 109.012 901.711C109.185 901.617 109.405 901.522 109.563 901.428C111.878 900.246 113.706 898.466 115.454 896.655C116.068 895.993 116.651 895.316 117.108 894.56C117.58 893.788 117.911 892.922 117.927 891.993C117.943 891.662 117.927 891.331 117.88 890.984C117.738 889.756 117.376 888.512 117.502 887.283C117.643 885.976 118.305 884.652 119.25 883.786C121.376 881.88 125.015 882.526 127.031 884.841C127.283 885.141 127.519 885.44 127.708 885.771C127.96 886.18 128.181 886.621 128.354 887.094C128.89 888.464 129.016 889.992 128.622 891.268C128.228 892.544 127.33 893.646 126.054 894.166C119.927 896.608 115.202 902.184 113.501 908.311C113.39 908.752 113.264 909.287 113.453 909.776C113.706 910.453 114.367 910.611 115.013 910.658C115.989 910.737 116.998 910.8 117.943 910.737C118.935 910.658 119.785 910.358 120.699 910.075C121.613 909.807 122.447 909.429 123.219 908.957C123.44 908.815 123.676 908.673 123.849 908.468C123.96 908.327 124.054 908.169 124.117 907.98C124.605 907.019 125.046 906.074 126.039 905.539C127.236 904.877 128.937 905.113 130.323 905.948C131.693 906.799 132.686 908.138 133.269 909.539C133.836 910.941 133.946 912.359 133.804 913.698C133.678 915.005 133.347 916.281 132.512 917.195C131.662 918.092 130.292 918.612 128.827 918.329C128.386 918.234 127.945 918.077 127.519 917.888C127.22 917.73 126.921 917.557 126.622 917.352C126.448 917.242 126.306 917.116 126.149 917.021C125.96 916.927 125.802 916.911 125.613 916.879L124.338 916.769C123.471 916.706 122.636 916.659 121.786 916.627L120.746 916.612Z" fill="#DBE061" fill-opacity="0.2"/>
</g>
<path d="M154.579 731.551C154.185 732.433 153.775 733.315 153.161 734.087C152.578 734.858 151.854 735.536 151.098 736.134C147.034 739.3 141.615 740.734 138.166 744.593C132.873 750.547 134.464 759.824 141.631 762.36C147.506 764.455 153.996 762.344 159.997 763.573C164.108 764.408 168.392 768.472 169.448 772.472C169.637 773.15 169.731 773.827 170.046 774.441C170.487 775.229 171.291 775.764 172.125 776.111C174.803 777.261 178.174 776.583 180.253 774.536C182.332 772.472 182.994 769.102 181.875 766.424C181.702 765.967 181.466 765.558 181.135 765.227C180.631 764.723 179.907 764.486 179.182 764.345C177.575 764.045 175.827 764.045 174.205 764.045C172.425 764.045 170.771 763.62 169.101 763.148C168.471 762.974 167.841 762.785 167.227 762.518C165.998 762.014 164.88 761.194 163.998 760.186C163.903 760.076 163.809 759.966 163.746 759.824C163.572 759.399 163.824 758.911 164.155 758.564C165.132 757.54 166.597 757.272 167.888 756.91C172.897 755.461 178.221 755.351 183.183 756.532C184.931 756.957 185.86 757.934 186.932 759.304C188.727 761.62 191.484 764.486 194.713 763.289C195.642 762.943 196.414 762.297 196.997 761.494C199.186 758.564 199.863 753.366 196.256 751.224C194.067 749.917 191.877 751.051 189.688 751.728C187.058 752.531 184.238 752.169 181.576 751.57C179.245 751.035 176.756 750.515 174.315 750.216C171.873 749.932 169.022 750.358 166.723 749.617C166.061 749.397 165.463 748.846 165.51 748.168C165.526 747.68 165.856 747.255 166.234 746.908L166.77 746.42C169.054 744.435 171.779 743.081 174.52 741.946C175.496 741.521 176.504 741.143 177.528 740.97C178.552 740.749 179.623 740.734 180.631 740.986C180.978 741.08 181.324 741.19 181.655 741.364C182.868 741.899 183.986 742.718 185.278 742.986C186.68 743.317 188.333 743.159 189.688 742.577C192.649 741.269 193.862 737.599 192.57 734.78C192.413 734.433 192.208 734.102 191.972 733.787C191.673 733.394 191.342 733.016 190.964 732.669C189.83 731.645 188.333 730.968 186.774 730.873C185.215 730.779 183.577 731.283 182.379 732.338C176.599 737.442 168.518 740.403 160.848 740.734C160.296 740.749 159.635 740.734 159.178 740.419C158.516 740.009 158.611 739.3 158.847 738.654C159.194 737.631 159.572 736.607 160.107 735.646C160.643 734.669 161.383 733.835 162.139 733.016C162.879 732.181 163.746 731.409 164.644 730.732C164.927 730.527 165.211 730.338 165.526 730.212C165.762 730.117 165.998 730.102 166.234 730.054C167.558 729.818 168.865 729.661 169.983 728.794C171.338 727.77 171.968 725.99 171.747 724.384C171.543 722.777 170.566 721.36 169.259 720.399C167.951 719.454 166.345 718.95 164.691 718.729C163.084 718.509 161.367 718.556 159.808 719.233C158.249 719.895 156.894 721.202 156.5 722.777C156.374 723.25 156.327 723.738 156.374 724.226C156.406 724.573 156.469 724.919 156.563 725.282C156.61 725.455 156.705 725.644 156.721 725.833C156.752 726.038 156.689 726.227 156.61 726.447C156.453 726.888 156.28 727.345 156.122 727.786C155.791 728.684 155.429 729.566 155.051 730.448L154.579 731.551Z" fill="#DBE061" fill-opacity="0.2"/>
<path d="M242.518 805.912C241.651 805.628 240.785 805.392 239.903 805.329C239.021 805.25 238.139 805.376 237.288 805.55C232.799 806.573 228.956 809.755 224.341 810.039C217.316 810.432 210.874 803.738 212.575 796.603C213.977 790.728 219.127 786.932 221.569 781.576C223.254 777.859 222.671 772.015 220.214 768.707C219.804 768.14 219.332 767.636 219.08 767.006C218.733 766.156 218.796 765.211 219.017 764.344C219.757 761.541 222.34 759.335 225.207 759.02C228.09 758.721 231.067 760.359 232.405 762.943C232.61 763.368 232.799 763.809 232.846 764.266C232.909 764.99 232.642 765.699 232.311 766.329C231.571 767.715 230.5 769.07 229.507 770.314C228.436 771.669 227.775 773.197 227.16 774.787C226.924 775.386 226.719 775.969 226.562 776.599C226.231 777.89 226.184 779.245 226.467 780.568C226.483 780.71 226.53 780.867 226.609 780.993C226.83 781.387 227.349 781.497 227.79 781.45C229.113 781.356 230.169 780.411 231.193 779.655C235.193 776.772 238.485 772.85 240.675 768.345C241.431 766.77 241.305 765.431 240.927 763.714C240.328 760.863 239.919 756.91 242.912 755.256C243.746 754.783 244.77 754.642 245.731 754.736C249.338 755.035 253.575 758.044 252.835 762.123C252.378 764.628 250.157 765.463 248.283 766.644C246.046 768.077 244.565 770.409 243.4 772.787C242.344 774.882 241.258 777.071 240.013 779.072C238.785 781.104 236.784 782.947 236.012 785.183C235.808 785.813 235.871 786.601 236.391 787.026C236.753 787.31 237.273 787.325 237.714 787.278C237.95 787.262 238.17 787.231 238.391 787.184C241.179 786.774 243.746 785.609 246.219 784.317C247.101 783.876 247.968 783.356 248.724 782.758C249.496 782.128 250.173 781.356 250.567 780.458C250.708 780.127 250.819 779.796 250.913 779.45C251.275 778.19 251.354 776.867 251.937 775.67C252.567 774.409 253.717 773.323 254.977 772.74C257.765 771.432 261.183 773.039 262.427 775.859C262.585 776.205 262.679 776.583 262.774 776.977C262.868 777.465 262.931 777.953 262.931 778.473C262.963 779.985 262.538 781.529 261.64 782.71C260.742 783.907 259.372 784.758 257.875 784.9C250.693 785.687 243.746 789.735 239.226 795.248C238.895 795.642 238.548 796.162 238.501 796.697C238.454 797.438 239.021 797.847 239.62 798.099C240.58 798.493 241.525 798.871 242.533 799.092C243.557 799.328 244.581 799.312 245.605 799.312C246.66 799.312 247.684 799.17 248.676 798.966C248.991 798.887 249.291 798.824 249.543 798.651C249.732 798.54 249.889 798.399 250.063 798.257C250.992 797.438 251.842 796.587 253.103 796.351C254.615 796.052 256.269 796.76 257.324 797.973C258.348 799.186 258.82 800.871 258.742 802.431C258.679 804.022 258.111 805.502 257.34 806.841C256.599 808.149 255.607 809.361 254.268 810.054C252.945 810.748 251.275 810.874 249.921 810.117C249.527 809.897 249.149 809.613 248.818 809.267C248.582 808.999 248.361 808.731 248.172 808.448C248.078 808.29 247.983 808.101 247.842 807.96C247.7 807.786 247.542 807.723 247.353 807.66L246.125 807.14C245.274 806.81 244.439 806.495 243.605 806.211L242.518 805.912Z" fill="#DBE061" fill-opacity="0.2"/>
<path d="M315.508 629.609C315.114 630.428 314.657 631.247 314.09 631.94C313.507 632.633 312.799 633.2 312.058 633.688C308.089 636.303 302.97 637.027 299.552 640.288C294.307 645.265 295.047 654.543 301.6 658.04C306.986 660.922 313.334 659.678 319.02 661.521C322.927 662.796 326.817 667.238 327.542 671.286C327.668 671.964 327.715 672.657 327.983 673.287C328.361 674.106 329.085 674.736 329.873 675.161C332.409 676.532 335.795 676.185 338.001 674.295C340.222 672.405 341.104 669.113 340.143 666.388C339.985 665.947 339.796 665.506 339.465 665.159C338.977 664.624 338.284 664.324 337.607 664.135C336.047 663.71 334.346 663.553 332.74 663.411C331.023 663.238 329.416 662.686 327.825 662.056C327.227 661.82 326.644 661.568 326.061 661.269C324.896 660.639 323.872 659.725 323.068 658.622C322.974 658.512 322.879 658.37 322.864 658.229C322.722 657.788 323.005 657.347 323.336 657.047C324.329 656.134 325.778 656.039 327.038 655.787C331.968 654.858 337.134 655.173 341.938 656.701C343.64 657.236 344.506 658.26 345.498 659.709C347.152 662.103 349.72 665.159 352.996 664.151C353.941 663.868 354.744 663.238 355.358 662.497C357.658 659.709 358.493 654.59 355.028 652.259C352.901 650.841 350.712 651.849 348.554 652.385C345.939 653.015 343.199 652.448 340.631 651.66C338.379 650.967 336 650.258 333.653 649.754C331.291 649.266 328.518 649.439 326.329 648.463C325.73 648.179 325.163 647.597 325.242 646.935C325.289 646.462 325.636 646.069 325.982 645.769L326.518 645.313C328.786 643.564 331.48 642.525 334.157 641.595C335.118 641.265 336.095 640.981 337.087 640.871C338.095 640.745 339.15 640.792 340.096 641.123C340.426 641.233 340.757 641.375 341.072 641.564C342.238 642.178 343.293 643.06 344.569 643.438C345.923 643.848 347.546 643.785 348.885 643.296C351.814 642.194 353.075 638.65 351.877 635.815C351.751 635.452 351.531 635.106 351.326 634.791C351.043 634.366 350.712 633.987 350.365 633.641C349.279 632.57 347.861 631.83 346.349 631.609C344.821 631.42 343.246 631.83 342.049 632.775C336.347 637.39 328.455 639.626 321.163 639.185C320.627 639.17 320.028 639.075 319.572 638.729C318.973 638.256 319.083 637.579 319.32 636.949C319.698 635.988 320.091 635.011 320.627 634.161C321.163 633.263 321.903 632.523 322.659 631.782C323.399 631.026 324.218 630.349 325.1 629.798C325.352 629.624 325.636 629.467 325.935 629.372C326.14 629.309 326.376 629.278 326.597 629.278C327.841 629.168 329.101 629.12 330.204 628.396C331.511 627.514 332.157 625.813 331.999 624.222C331.826 622.631 330.928 621.166 329.684 620.142C328.455 619.118 326.943 618.488 325.384 618.11C323.84 617.764 322.234 617.669 320.769 618.157C319.304 618.646 317.997 619.796 317.571 621.292C317.461 621.733 317.414 622.19 317.43 622.662C317.461 623.009 317.508 623.355 317.603 623.686C317.65 623.875 317.713 624.064 317.745 624.253C317.76 624.458 317.697 624.615 317.619 624.805C317.461 625.23 317.304 625.639 317.13 626.065C316.784 626.899 316.437 627.718 316.059 628.538L315.508 629.609Z" fill="#DBE061" fill-opacity="0.2"/>
<path d="M399.415 708.632C398.533 708.349 397.635 708.097 396.69 708.002C395.761 707.924 394.832 708.018 393.918 708.207C389.145 709.184 384.861 712.334 379.994 712.476C372.575 712.681 366.605 705.577 368.937 698.441C370.843 692.598 376.371 688.959 379.159 683.635C381.097 679.981 380.75 674.106 378.372 670.735C377.978 670.168 377.505 669.632 377.269 669.002C376.954 668.168 377.033 667.207 377.316 666.34C378.151 663.568 380.813 661.458 383.743 661.221C386.657 660.985 389.634 662.686 390.925 665.269C391.13 665.695 391.288 666.136 391.319 666.608C391.366 667.317 391.083 668.026 390.705 668.656C389.902 670.058 388.783 671.365 387.728 672.594C386.61 673.917 385.838 675.429 385.16 677.02C384.908 677.603 384.656 678.217 384.467 678.815C384.074 680.091 383.979 681.446 384.184 682.785C384.215 682.926 384.231 683.084 384.31 683.226C384.515 683.619 385.05 683.761 385.491 683.73C386.862 683.667 387.98 682.737 389.051 681.981C393.304 679.162 396.785 675.271 399.148 670.798C399.982 669.207 399.841 667.884 399.51 666.183C398.958 663.332 398.612 659.378 401.652 657.772C402.518 657.299 403.542 657.189 404.519 657.283C408.173 657.598 412.489 660.591 411.701 664.671C411.213 667.144 408.929 667.979 406.992 669.16C404.66 670.562 403.101 672.893 401.825 675.271C400.707 677.366 399.494 679.54 398.139 681.54C396.785 683.556 394.674 685.368 393.761 687.62C393.509 688.25 393.524 689.054 394.06 689.463C394.438 689.778 394.958 689.794 395.446 689.747C395.666 689.731 395.903 689.699 396.139 689.684C399.053 689.306 401.746 688.14 404.361 686.88C405.29 686.439 406.204 685.951 407.007 685.321C407.826 684.691 408.551 683.919 408.992 683.005C409.165 682.69 409.276 682.359 409.386 682.013C409.78 680.753 409.906 679.398 410.551 678.233C411.229 676.972 412.442 675.886 413.749 675.271C416.663 673.964 420.144 675.555 421.357 678.374C421.53 678.721 421.625 679.099 421.688 679.493C421.782 679.981 421.829 680.469 421.829 680.989C421.829 682.501 421.341 684.045 420.38 685.258C419.435 686.455 417.986 687.305 416.427 687.494C408.929 688.298 401.589 692.33 396.564 697.843C396.186 698.237 395.808 698.741 395.714 699.308C395.619 700.048 396.186 700.442 396.816 700.725C397.761 701.151 398.769 701.544 399.793 701.781C400.849 702.017 401.92 702.017 402.991 702.017C404.078 702.017 405.149 701.891 406.22 701.655C406.551 701.592 406.85 701.529 407.149 701.355C407.37 701.245 407.527 701.103 407.716 700.962C408.709 700.143 409.669 699.276 410.992 699.024C412.599 698.725 414.3 699.449 415.324 700.678C416.348 701.922 416.757 703.592 416.616 705.183C416.474 706.79 415.797 708.302 414.914 709.656C414.048 710.979 412.914 712.224 411.465 712.917C410.016 713.641 408.22 713.752 406.834 712.996C406.409 712.759 406.031 712.46 405.716 712.129C405.48 711.877 405.275 711.594 405.086 711.294C404.991 711.121 404.897 710.932 404.786 710.806C404.645 710.633 404.471 710.57 404.282 710.491L403.007 709.956C402.14 709.609 401.29 709.278 400.423 709.01L399.415 708.632Z" fill="#DBE061" fill-opacity="0.2"/>
<path d="M462.201 529.651C461.964 530.486 461.697 531.305 461.287 532.061C460.862 532.77 460.311 533.4 459.681 533.967C456.373 536.897 451.663 538.094 448.891 541.559C444.685 546.851 446.607 555.814 453.412 558.649C459.003 560.965 465.004 559.122 470.785 560.256C474.77 561.059 479.244 564.918 480.519 568.809C480.74 569.47 480.897 570.147 481.244 570.73C481.732 571.502 482.52 572.006 483.37 572.305C486.064 573.329 489.356 572.542 491.23 570.384C493.12 568.21 493.498 564.855 492.128 562.288C491.892 561.862 491.64 561.469 491.277 561.169C490.726 560.697 490.002 560.523 489.309 560.429C487.718 560.208 486.017 560.303 484.457 560.382C482.756 560.476 481.134 560.114 479.48 559.704C478.85 559.531 478.235 559.374 477.637 559.137C476.408 558.649 475.258 557.909 474.329 556.932C474.235 556.806 474.124 556.696 474.046 556.57C473.857 556.176 474.046 555.688 474.329 555.357C475.148 554.365 476.534 554.081 477.7 553.687C482.315 552.144 487.34 551.75 492.254 552.522C494.002 552.805 495.026 553.656 496.223 554.916C498.224 557.027 501.28 559.626 504.304 558.098C505.17 557.657 505.847 556.901 506.304 556.066C508.084 552.916 507.895 547.765 504.067 546.111C501.736 545.087 499.862 546.442 497.846 547.292C495.452 548.332 492.711 548.206 490.065 547.812C487.765 547.466 485.371 547.135 483.008 546.946C480.661 546.788 478.046 547.34 475.778 546.662C475.148 546.489 474.518 545.969 474.471 545.324C474.439 544.851 474.707 544.426 474.975 544.111L475.416 543.622C477.29 541.638 479.669 540.267 482.032 539.007C482.882 538.551 483.764 538.141 484.693 537.889C485.623 537.621 486.631 537.511 487.607 537.7C487.954 537.763 488.285 537.857 488.6 537.968C489.844 538.393 491.01 539.102 492.286 539.259C493.656 539.448 495.2 539.133 496.365 538.44C498.964 536.928 499.405 533.227 497.672 530.706C497.452 530.376 497.168 530.092 496.916 529.824C496.57 529.462 496.176 529.147 495.751 528.864C494.491 527.997 492.979 527.509 491.514 527.556C490.049 527.619 488.631 528.233 487.718 529.32C483.292 534.644 476.188 537.905 469.179 538.33C468.674 538.346 468.06 538.346 467.603 538.062C466.942 537.7 466.942 537.023 467.068 536.393C467.241 535.416 467.462 534.439 467.777 533.526C468.139 532.597 468.69 531.777 469.257 530.99C469.809 530.171 470.454 529.415 471.179 528.769C471.399 528.564 471.62 528.375 471.903 528.249C472.092 528.155 472.297 528.107 472.518 528.076C473.668 527.792 474.865 527.603 475.731 526.737C476.771 525.713 477.023 523.996 476.534 522.5C476.046 521.004 474.912 519.728 473.542 518.877C472.187 518.042 470.628 517.649 469.131 517.507C467.651 517.365 466.123 517.491 464.878 518.121C463.587 518.751 462.642 519.98 462.547 521.476C462.516 521.917 462.563 522.374 462.689 522.831C462.752 523.146 462.862 523.477 463.036 523.807C463.099 523.965 463.225 524.154 463.272 524.311C463.335 524.532 463.288 524.689 463.272 524.878C463.193 525.288 463.13 525.713 463.036 526.139C462.862 526.973 462.689 527.808 462.468 528.627L462.201 529.651Z" fill="#DBE061" fill-opacity="0.2"/>
<path d="M558.315 592.924C557.354 592.845 556.377 592.798 555.432 592.94C554.471 593.082 553.542 593.413 552.628 593.822C547.903 595.948 543.965 600.075 538.988 601.209C531.364 602.942 524.387 596.862 525.662 589.286C526.733 583.08 531.664 578.354 533.506 572.432C534.798 568.368 533.317 562.587 530.34 559.752C529.852 559.28 529.301 558.839 528.923 558.256C528.435 557.484 528.34 556.523 528.435 555.625C528.718 552.711 530.86 550.049 533.68 549.183C536.468 548.301 539.76 549.262 541.571 551.546C541.87 551.908 542.122 552.318 542.248 552.759C542.437 553.452 542.311 554.223 542.075 554.917C541.587 556.507 540.752 558.067 539.964 559.516C539.098 561.075 538.689 562.776 538.279 564.509C538.153 565.155 538.011 565.785 537.933 566.462C537.791 567.817 537.933 569.219 538.405 570.463C538.452 570.605 538.515 570.747 538.61 570.873C538.893 571.219 539.445 571.235 539.886 571.093C541.24 570.731 542.201 569.518 543.146 568.557C546.832 564.73 549.557 560.02 550.912 554.964C551.368 553.2 550.975 551.892 550.282 550.286C549.116 547.608 547.84 543.78 550.439 541.433C551.195 540.756 552.14 540.347 553.117 540.173C556.755 539.512 561.717 541.244 561.906 545.497C562 548.096 559.969 549.577 558.315 551.262C556.362 553.294 555.306 556.019 554.55 558.728C553.889 561.107 553.117 563.564 552.172 565.927C551.242 568.274 549.415 570.605 548.958 573.078C548.817 573.787 549.006 574.574 549.604 574.873C550.045 575.078 550.565 574.999 551.053 574.826C551.274 574.732 551.51 574.669 551.746 574.574C554.582 573.471 557.133 571.629 559.496 569.675C560.347 568.982 561.181 568.258 561.859 567.392C562.552 566.525 563.119 565.58 563.371 564.525C563.465 564.147 563.513 563.8 563.56 563.438C563.702 562.083 563.513 560.681 563.906 559.327C564.3 557.878 565.277 556.46 566.442 555.484C569.01 553.341 572.869 553.893 574.743 556.35C574.964 556.649 575.153 556.996 575.31 557.374C575.531 557.831 575.688 558.319 575.814 558.823C576.161 560.351 576.019 562.036 575.31 563.548C574.617 565.06 573.341 566.32 571.829 566.95C564.442 569.959 557.842 575.897 553.731 582.654C553.432 583.158 553.117 583.757 553.148 584.34C553.164 585.127 553.826 585.395 554.503 585.505C555.542 585.694 556.614 585.852 557.716 585.836C558.834 585.805 559.921 585.553 561.024 585.269C562.111 584.986 563.213 584.592 564.253 584.088C564.552 583.915 564.883 583.757 565.135 583.521C565.324 583.363 565.481 583.174 565.655 582.969C566.537 581.867 567.324 580.733 568.632 580.119C570.223 579.378 572.081 579.63 573.389 580.591C574.664 581.536 575.405 583.127 575.547 584.812C575.688 586.466 575.294 588.215 574.617 589.837C573.971 591.444 573.011 592.987 571.64 594.106C570.27 595.224 568.443 595.838 566.868 595.413C566.395 595.303 565.954 595.082 565.576 594.799C565.308 594.594 565.025 594.389 564.788 594.137C564.647 593.995 564.552 593.822 564.395 593.712C564.237 593.57 564.048 593.554 563.843 593.523L562.441 593.318C561.512 593.176 560.567 593.082 559.622 592.987L558.315 592.924Z" fill="#DBE061" fill-opacity="0.2"/>
<path d="M566.301 402.712C566.395 403.547 566.443 404.413 566.332 405.216C566.206 406.036 565.907 406.823 565.529 407.548C563.576 411.407 559.638 414.132 558.362 418.227C556.425 424.48 561.434 432.072 568.758 432.419C574.759 432.687 579.674 428.906 585.423 427.946C589.408 427.3 594.952 429.284 597.583 432.45C598.024 432.986 598.402 433.569 598.953 433.962C599.678 434.498 600.607 434.687 601.521 434.687C604.403 434.687 607.175 432.75 608.152 430.04C609.144 427.347 608.246 424.086 606.041 422.196C605.695 421.897 605.301 421.614 604.844 421.472C604.182 421.235 603.426 421.33 602.733 421.488C601.19 421.897 599.63 422.559 598.213 423.189C596.653 423.866 595.015 424.149 593.33 424.338C592.7 424.401 592.07 424.48 591.408 424.48C590.085 424.48 588.762 424.181 587.549 423.598C587.407 423.519 587.266 423.456 587.155 423.362C586.825 423.063 586.825 422.543 586.966 422.118C587.36 420.905 588.542 420.164 589.487 419.377C593.204 416.321 597.74 414.132 602.592 413.061C604.308 412.683 605.569 413.124 607.159 413.848C609.79 415.061 613.586 416.384 615.838 413.848C616.5 413.124 616.846 412.194 616.957 411.233C617.429 407.642 615.397 402.933 611.239 402.775C608.687 402.681 607.443 404.634 605.884 406.162C604.009 407.973 601.426 408.887 598.843 409.469C596.559 409.973 594.212 410.54 591.975 411.218C589.707 411.911 587.518 413.36 585.155 413.549C584.493 413.596 583.722 413.328 583.454 412.746C583.233 412.336 583.328 411.864 583.47 411.454L583.706 410.84C584.698 408.351 586.399 406.225 588.148 404.177C588.778 403.452 589.455 402.759 590.195 402.177C590.967 401.594 591.849 401.121 592.826 400.932C593.188 400.869 593.535 400.838 593.881 400.822C595.189 400.775 596.512 400.979 597.787 400.68C599.142 400.349 600.449 399.483 601.284 398.443C603.159 396.081 602.214 392.474 599.678 390.741C599.363 390.536 599 390.347 598.654 390.19C598.197 390.001 597.724 389.843 597.236 389.717C595.74 389.402 594.165 389.481 592.81 390.064C591.487 390.647 590.384 391.765 589.928 393.104C587.754 399.672 582.351 405.264 576.019 408.13C575.547 408.351 574.995 408.556 574.428 408.461C573.688 408.351 573.436 407.721 573.31 407.107C573.137 406.162 572.948 405.169 572.948 404.193C572.916 403.216 573.153 402.255 573.357 401.326C573.594 400.381 573.893 399.467 574.334 398.601C574.46 398.349 574.602 398.097 574.806 397.876C574.948 397.735 575.137 397.624 575.295 397.483C576.271 396.805 577.295 396.207 577.783 395.104C578.366 393.781 578.004 392.096 576.996 390.867C575.988 389.654 574.46 388.882 572.869 388.599C571.31 388.315 569.735 388.504 568.254 388.898C566.821 389.308 565.466 389.954 564.505 391.009C563.576 392.048 563.119 393.545 563.576 394.947C563.718 395.356 563.922 395.766 564.206 396.128C564.411 396.412 564.631 396.664 564.883 396.9C565.025 397.042 565.182 397.152 565.308 397.294C565.45 397.467 565.466 397.624 565.513 397.813C565.608 398.223 565.671 398.648 565.765 399.042C565.939 399.877 566.065 400.727 566.191 401.562L566.301 402.712Z" fill="#DBE061" fill-opacity="0.2"/>
<path d="M623.131 243.278C623.462 244.097 623.761 244.916 623.887 245.751C623.997 246.602 623.934 247.452 623.792 248.303C622.989 252.682 620.012 256.572 619.965 260.998C619.918 267.755 626.974 273.615 634.062 271.63C639.874 269.976 643.466 264.826 648.711 262.148C652.349 260.305 658.24 260.589 661.658 262.873C662.21 263.235 662.745 263.676 663.407 263.912C664.241 264.211 665.202 264.117 666.053 263.849C668.825 262.983 670.904 260.321 671.062 257.438C671.204 254.54 669.439 251.673 666.777 250.508C666.368 250.319 665.895 250.161 665.439 250.161C664.714 250.146 664.005 250.445 663.407 250.807C662.036 251.626 660.745 252.745 659.563 253.8C658.288 254.918 656.76 255.659 655.2 256.367C654.617 256.619 654.035 256.871 653.42 257.06C652.16 257.454 650.774 257.549 649.451 257.36C649.309 257.344 649.152 257.312 649.01 257.249C648.616 257.045 648.475 256.556 648.475 256.1C648.506 254.808 649.435 253.721 650.113 252.682C652.79 248.602 656.539 245.152 660.886 242.727C662.43 241.86 663.785 241.939 665.502 242.191C668.368 242.617 672.369 242.79 673.834 239.718C674.259 238.852 674.322 237.828 674.196 236.867C673.661 233.292 670.369 229.291 666.336 230.331C663.863 230.929 663.202 233.197 662.131 235.103C660.839 237.403 658.603 239.025 656.271 240.317C654.255 241.467 652.129 242.695 650.176 244.034C648.222 245.357 646.49 247.436 644.285 248.303C643.67 248.523 642.867 248.523 642.426 248.035C642.111 247.688 642.064 247.2 642.064 246.759L642.111 246.113C642.379 243.373 643.403 240.789 644.521 238.301C644.915 237.403 645.356 236.552 645.939 235.749C646.521 234.961 647.246 234.268 648.128 233.796C648.427 233.638 648.758 233.497 649.105 233.371C650.333 232.961 651.688 232.772 652.806 232.126C654.019 231.417 655.043 230.205 655.563 228.944C656.697 226.125 654.807 222.896 651.893 221.935C651.53 221.809 651.152 221.746 650.758 221.683C650.27 221.604 649.75 221.604 649.262 221.636C647.734 221.73 646.238 222.266 645.104 223.211C643.985 224.172 643.214 225.542 643.166 227.007C642.883 234.032 639.244 241.073 633.983 245.783C633.59 246.129 633.133 246.507 632.566 246.57C631.825 246.665 631.4 246.145 631.101 245.562C630.66 244.68 630.219 243.782 629.92 242.837C629.605 241.892 629.557 240.884 629.51 239.907C629.463 238.899 629.51 237.907 629.683 236.915C629.731 236.615 629.794 236.332 629.935 236.064C630.03 235.875 630.172 235.702 630.313 235.528C631.054 234.568 631.873 233.686 632.03 232.441C632.235 230.961 631.4 229.417 630.093 228.535C628.801 227.621 627.1 227.322 625.509 227.511C623.934 227.684 622.453 228.346 621.162 229.165C619.902 229.968 618.752 231.024 618.122 232.331C617.492 233.638 617.492 235.245 618.342 236.505C618.594 236.867 618.894 237.198 619.272 237.497C619.555 237.718 619.823 237.907 620.122 238.064C620.296 238.159 620.485 238.222 620.642 238.348C620.8 238.458 620.894 238.616 620.989 238.789L621.603 239.923C621.997 240.695 622.343 241.482 622.69 242.286L623.131 243.278Z" fill="#DBE061" fill-opacity="0.2"/>
</svg>
